<svg width="133" height="30" viewBox="0 0 266 52" fill="none" xmlns="http://www.w3.org/2000/svg">
    <path d="M0.489349 13.2235H5.28042V9.01031C5.28042 3.91931 8.34671 0.583832 14.4793 0.583832L17.5456 1.11049V6.20148L14.2876 5.67483C12.3712 5.67483 11.6046 6.72814 11.6046 8.48365V13.2235H17.7372V18.3145H11.6046V39.3807H5.47208V18.3145H0.489349V13.2235Z" fill="#D70F64"/>
    <path d="M33.2603 12.6969C41.1177 12.6969 48.2084 18.3145 48.2084 26.3899C48.2084 34.4653 41.3093 40.0829 33.2603 40.0829C25.2113 40.0829 18.3122 34.4653 18.3122 26.3899C18.3122 18.139 25.403 12.6969 33.2603 12.6969ZM33.2603 34.9919C39.0096 34.9919 42.0759 31.1298 42.0759 26.3899C42.0759 21.65 39.0096 17.7879 33.2603 17.7879C27.511 17.7879 24.4447 21.65 24.4447 26.3899C24.4447 30.9543 27.511 34.9919 33.2603 34.9919V34.9919Z" fill="#D70F64"/>
    <path d="M65.6479 12.6969C73.5053 12.6969 80.5961 18.3145 80.5961 26.3899C80.5961 34.4653 73.6969 40.0829 65.6479 40.0829C57.5989 40.0829 50.6998 34.4653 50.6998 26.3899C50.8914 18.139 57.7906 12.6969 65.6479 12.6969ZM65.6479 34.9919C71.3972 34.9919 74.4635 31.1298 74.4635 26.3899C74.4635 21.65 71.3972 17.7879 65.6479 17.7879C59.8986 17.7879 56.8323 21.65 56.8323 26.3899C56.8323 30.9543 59.8986 34.9919 65.6479 34.9919V34.9919Z" fill="#D70F64"/>
    <path d="M112.409 39.3807H106.851L106.276 37.0985L105.893 36.7474L105.51 37.0985C103.593 38.8541 100.719 39.9074 97.6523 39.9074C89.7949 39.9074 83.0875 34.2897 83.0875 26.2143C83.0875 18.139 89.7949 12.5213 97.6523 12.5213C100.719 12.5213 103.785 13.5746 105.51 15.3301L105.893 15.6812L106.276 15.3301V0.759369H112.409V39.3807ZM98.0356 17.6123C92.2863 17.6123 89.22 21.4745 89.22 26.2143C89.22 30.9542 92.2863 34.8164 98.0356 34.8164C103.21 34.8164 106.851 30.9542 106.851 26.2143C106.851 21.65 103.21 17.6123 98.0356 17.6123V17.6123Z" fill="#D70F64"/>
    <path d="M118.541 13.2236H124.099L124.674 15.5057L125.057 15.8568L125.441 15.5057C127.357 13.7502 130.232 12.6969 133.298 12.6969C141.155 12.6969 147.863 18.3145 147.863 26.3899C147.863 34.4653 141.155 40.0829 133.298 40.0829C130.232 40.0829 127.165 39.0296 125.441 37.2741L125.057 36.923L124.674 37.2741V51.3182H118.733V13.2236H118.541ZM132.723 34.9919C138.472 34.9919 141.539 31.1298 141.539 26.3899C141.539 21.65 138.472 17.7879 132.723 17.7879C127.549 17.7879 123.907 21.65 123.907 26.3899C123.907 30.9543 127.549 34.9919 132.723 34.9919Z" fill="#D70F64"/>
    <path d="M163.003 23.0544H167.985V21.8256C167.985 18.6656 165.686 17.2612 162.428 17.2612C159.745 17.2612 158.02 18.4901 157.062 20.7723L151.696 19.7189C152.845 15.3302 157.062 12.5213 162.619 12.5213C170.285 12.5213 174.118 16.0324 174.118 22.8789V39.2052H169.135L168.56 35.6941C166.644 38.3274 163.577 39.5563 159.553 39.5563C154.379 39.5563 150.737 36.7475 150.737 31.4809C150.546 26.3899 155.528 23.0544 163.003 23.0544V23.0544ZM160.32 34.9919C162.236 34.9919 164.152 34.4653 165.494 33.2364C167.027 32.0076 167.794 30.4276 167.794 28.321V27.7943H162.619C158.978 27.7943 156.678 29.3743 156.678 31.832C156.678 33.5875 158.02 34.9919 160.32 34.9919V34.9919Z" fill="#D70F64"/>
    <path d="M179.484 13.2236H185.041L185.616 15.5057L186 15.8568L186.383 15.5057C187.533 13.7502 190.599 12.6969 193.09 12.6969C200.373 12.6969 204.589 17.0857 204.589 23.23V39.3807H198.456V23.23C198.265 19.719 196.348 17.6123 192.324 17.6123C188.683 17.6123 185.808 20.2456 185.616 23.5811V39.3807H179.484V13.2236Z" fill="#D70F64"/>
    <path d="M237.36 39.3807H231.802L231.227 37.0985L230.844 36.7474L230.461 37.0985C228.544 38.8541 225.67 39.9074 222.604 39.9074C214.746 39.9074 208.039 34.2897 208.039 26.2143C208.039 18.139 214.746 12.5213 222.604 12.5213C225.67 12.5213 228.736 13.5746 230.461 15.3301L230.844 15.6812L231.227 15.3301V0.759369H237.36V39.3807ZM223.178 17.6123C217.429 17.6123 214.363 21.4745 214.363 26.2143C214.363 30.9542 217.429 34.8164 223.178 34.8164C228.353 34.8164 231.994 30.9542 231.994 26.2143C231.994 21.65 228.353 17.6123 223.178 17.6123Z" fill="#D70F64"/>
    <path d="M254.8 23.0544H259.782V21.8256C259.782 18.6656 257.483 17.2612 254.225 17.2612C251.542 17.2612 249.817 18.4901 248.859 20.7723L243.493 19.7189C244.642 15.3302 248.859 12.5213 254.416 12.5213C262.082 12.5213 265.915 16.0324 265.915 22.8789V39.2052H260.932L260.357 35.6941C258.441 38.3274 255.374 39.5563 251.35 39.5563C246.176 39.5563 242.534 36.7475 242.534 31.4809C242.343 26.3899 247.134 23.0544 254.8 23.0544V23.0544ZM252.116 34.9919C254.033 34.9919 255.949 34.4653 257.291 33.2364C258.824 32.0076 259.591 30.4276 259.591 28.321V27.7943H254.416C250.775 27.7943 248.475 29.3743 248.475 31.832C248.475 33.5875 249.817 34.9919 252.116 34.9919V34.9919Z" fill="#D70F64"/>
</svg>