<svg xmlns="http://www.w3.org/2000/svg" class="svg-stroke-container" fill="hsl(334, 79%, 50%)" width="24" height="24">
    <path d="M12 2.75a4.75 4.75 0 014.744 4.5h3.103a1 1 0 01.99 1.141l-1.714 12a1 1 0 01-.99.859H5.867a1 1 0 01-.99-.859l-1.714-12a1 1 0 01.99-1.141h3.103A4.75 4.75 0 0112 2.75zm5.559 14.75H6.44a.4.4 0 00-.396.457l.208 1.45a.4.4 0 00.396.343H17.35a.4.4 0 00.396-.343l.208-1.45a.4.4 0 00-.396-.457zm1.25-8.75H5.19a.4.4 0 00-.396.457l.922 6.45a.4.4 0 00.396.343h11.775a.4.4 0 00.396-.343l.922-6.45a.4.4 0 00-.396-.457zM12 4.25a3.251 3.251 0 00-3.193 2.638.305.305 0 00.3.362h5.796a.297.297 0 00.292-.35A3.251 3.251 0 0012 4.25z"></path>
</svg>