<svg aria-hidden="true" focusable="false" width="24px" height="24px" xmlns="http://www.w3.org/2000/svg" xmlns:xlink="http://www.w3.org/1999/xlink" viewBox="0 0 24 24"><defs><path d="M19,9 C21.5944935,9 23.7410671,10.9807252 23.9791087,13.5538725 L23.9948042,13.7758464 L24.0124106,14.5 C24.0124106,14.7454599 23.8355354,14.9496084 23.6022862,14.9919443 L23.5124106,15 L22.0248212,15 L21.9948042,13.7758464 C21.8633628,11.0955264 19.6686219,9 17,9 L19,9 Z M15,9 C17.5944935,9 19.7410671,10.9807252 19.9791087,13.5538725 L19.9948042,13.7758464 L20.0124106,14.5 C20.0124106,14.7454599 19.8355354,14.9496084 19.6022862,14.9919443 L19.5124106,15 L6.5,15 C6.25454011,15 6.05039163,14.8231248 6.00805567,14.5898756 L6,14.5 L6,14 C6,11.3112453 8.12230671,9.11818189 10.7831104,9.00461951 L11,9 L15,9 Z M15,11 L11,11 C9.76327665,11 8.70133775,11.7483412 8.24230244,12.8169044 L8.17,13 L17.829,13 L17.7710919,12.8478572 C17.3655561,11.8734213 16.46103,11.1611965 15.3811256,11.0240314 L15.1766673,11.0051283 L15,11 Z M4.5,3 C4.77614237,3 5,3.22385763 5,3.5 L5,6 L7.5,6 C7.77614237,6 8,6.22385763 8,6.5 L8,7.5 C8,7.77614237 7.77614237,8 7.5,8 L5,8 L5,10.5 C5,10.7761424 4.77614237,11 4.5,11 L3.5,11 C3.22385763,11 3,10.7761424 3,10.5 L3,8 L0.5,8 C0.223857625,8 0,7.77614237 0,7.5 L0,6.5 C0,6.22385763 0.223857625,6 0.5,6 L3,6 L3,3.5 C3,3.22385763 3.22385763,3 3.5,3 L4.5,3 Z M17,0 C19.209139,0 21,1.790861 21,4 C21,6.209139 19.209139,8 17,8 C16.6547311,8 16.3196794,7.95625476 16.0000851,7.87400442 C17.7251853,7.42999122 19,5.86387007 19,4 C19,2.1372214 17.7266779,0.571843105 16.0029454,0.126776773 C16.3257187,0.0425693357 16.6603405,0 17,0 Z M13,0 C15.209139,0 17,1.790861 17,4 C17,6.209139 15.209139,8 13,8 C10.790861,8 9,6.209139 9,4 C9,1.790861 10.790861,0 13,0 Z M13,2 C11.8954305,2 11,2.8954305 11,4 C11,5.1045695 11.8954305,6 13,6 C14.1045695,6 15,5.1045695 15,4 C15,2.8954305 14.1045695,2 13,2 Z" id="path-1"></path></defs><g stroke="none" stroke-width="1" fill-rule="evenodd"><g transform="translate(-278.000000, -40.000000)"><g transform="translate(274.000000, 36.000000)"><g transform="translate(4.000000, 4.000000)"><g><g transform="translate(0.000000, 4.000000)"><mask id="mask-2" fill="white"><use xlink:href="#path-1"></use></mask><use fill-rule="nonzero" xlink:href="#path-1"></use><g mask="url(#mask-2)"><g transform="translate(0.000000, -4.000000)"><rect x="0" y="0" width="24" height="24"></rect></g></g></g></g></g></g></g></g></svg>