<svg height="26" viewBox="0 0 52 48" fill="none" xmlns="http://www.w3.org/2000/svg">
    <path d="M26.1363 35.1298C29.5859 35.1298 32.4605 32.8476 32.4605 30.0388H19.8121C19.8121 32.8476 22.4951 35.1298 26.1363 35.1298V35.1298Z" fill="#D70F64"/>
    <path d="M47.4087 10.9037C48.9418 9.85036 49.7084 8.09484 49.7084 6.16377C49.7084 2.65274 46.6421 0.0194702 42.8092 0.0194702C40.3179 0.0194702 38.2098 1.07278 37.06 2.8283C33.6104 1.24833 29.7775 0.546125 25.9447 0.546125C21.9202 0.546125 18.0873 1.42388 14.8294 2.8283C13.6795 1.07278 11.5714 0.0194702 9.08009 0.0194702C5.24723 0.0194702 2.18093 2.82829 2.18093 6.16377C2.18093 8.09484 3.13917 9.6748 4.48067 10.9037C1.60603 14.7658 0.072876 19.1546 0.072876 24.07C0.072876 37.0608 11.5715 47.7695 25.9447 47.7695C40.1262 47.7695 51.8165 37.2364 51.8165 24.07C51.8165 19.1546 50.2833 14.5902 47.4087 10.9037V10.9037ZM26.1363 45.8384C13.1046 45.8384 2.37258 36.0075 2.37258 24.07C2.37258 19.5057 3.90574 15.2925 6.3971 11.7814C8.69681 8.6215 11.9547 5.98822 15.7876 4.40826C18.8539 3.00385 22.4951 2.30164 26.1363 2.30164C29.7775 2.30164 33.4187 3.00385 36.485 4.40826C40.3179 6.16377 43.3842 8.6215 45.8755 11.7814C48.3669 15.2925 49.9 19.5057 49.9 24.07C49.9 36.0075 39.168 45.8384 26.1363 45.8384Z" fill="#D70F64"/>
    <path d="M26.1363 28.6344C26.5196 28.8099 30.5441 27.4055 30.5441 25.65C30.5441 24.5967 27.2861 24.4211 26.1363 24.4211C24.9864 24.4211 21.7285 24.5967 21.7285 25.65C21.5369 27.4055 25.753 28.8099 26.1363 28.6344Z" fill="#D70F64"/>
    <path d="M41.0844 13.888C38.7847 12.4836 33.802 11.7814 31.8856 14.0636C31.8856 14.0636 29.3942 16.5213 31.8856 18.979C34.3769 21.4368 36.1017 23.8945 36.6766 25.8255C37.2516 27.9322 38.2098 28.6344 39.9346 28.6344C41.6594 28.6344 45.1089 26.1766 45.6839 22.139C46.0672 18.1013 43.3841 15.1169 41.0844 13.888V13.888ZM35.9101 18.979C35.1435 18.979 34.5686 18.4524 34.5686 17.7502C34.5686 17.048 35.1435 16.5213 35.9101 16.5213C36.6766 16.5213 37.2516 17.048 37.2516 17.7502C37.2516 18.4524 36.6766 18.979 35.9101 18.979Z" fill="#D70F64"/>
    <path d="M20.1954 14.0636C18.279 11.7814 13.2962 12.4836 10.9965 13.888C8.69682 15.2925 6.01383 18.1013 6.39711 22.139C6.7804 26.1766 10.23 28.6344 12.1464 28.6344C13.8712 28.6344 14.8294 27.7566 15.4043 25.8255C15.9793 23.7189 17.8957 21.4368 20.1954 18.979C22.6868 16.3458 20.1954 14.0636 20.1954 14.0636V14.0636ZM16.5542 18.979C15.7876 18.979 15.2127 18.4524 15.2127 17.7502C15.2127 17.048 15.7876 16.5213 16.5542 16.5213C17.3207 16.5213 17.8957 17.048 17.8957 17.7502C17.8957 18.4524 17.3207 18.979 16.5542 18.979Z" fill="#D70F64"/>
</svg>  