<svg xmlns="http://www.w3.org/2000/svg" width="80" height="27" viewBox="0 0 117 24" fill="none"><g clip-path="url(#A)"><path fill-rule="evenodd" d="M63.167 24l3.551-24h49.853l-3.525 24h-12.557l1.873-2.969 8.17-14.244h-2.413l-4.998 9.149h-.051l-1.911-9.149h-2.613l2.847 11.795-1.045 1.855L98.171 24H63.167zM78.102 6.49c.921 0 1.728.157 2.42.47s1.251.75 1.675 1.311.711 1.216.86 1.966.151 1.554.002 2.411a7.98 7.98 0 0 1-.877 2.436c-.42.75-.942 1.401-1.565 1.953a7.07 7.07 0 0 1-2.131 1.298c-.799.313-1.659.47-2.58.47-.854 0-1.627-.178-2.318-.532s-1.185-.837-1.482-1.447h-.05L70.775 24h-2.262l3.07-17.212h2.262l-.286 1.682h.051a5.68 5.68 0 0 1 2.062-1.459c.816-.346 1.626-.52 2.431-.52zm13.67 0c.871 0 1.605.108 2.2.322s1.062.504 1.401.866a2.6 2.6 0 0 1 .659 1.249c.1.47.108.961.023 1.472l-1.066 5.984-.191 1.137-.085.99h-2.01l.094-.891.144-.89h-.05c-.647.758-1.34 1.294-2.08 1.607s-1.562.47-2.467.47c-.552 0-1.065-.075-1.538-.223a3.13 3.13 0 0 1-1.194-.668c-.325-.297-.559-.664-.703-1.1s-.163-.944-.059-1.521c.128-.758.41-1.393.846-1.904s.984-.928 1.64-1.249 1.393-.553 2.211-.693a15.31 15.31 0 0 1 2.583-.21h1.658l.093-.495a2.12 2.12 0 0 0-.006-.89 1.91 1.91 0 0 0-.386-.803c-.192-.239-.454-.429-.784-.569s-.738-.211-1.224-.211c-.436 0-.826.042-1.173.124s-.659.185-.941.309-.545.268-.795.433l-.732.47-1.107-1.385a7.93 7.93 0 0 1 2.446-1.298c.89-.288 1.753-.433 2.591-.433zm1.734 6.381h-1.211a16.83 16.83 0 0 0-1.668.086 7.41 7.41 0 0 0-1.602.334c-.493.165-.913.396-1.26.693s-.563.676-.646 1.137c-.124.677.018 1.163.428 1.459s1.01.445 1.8.445c.623 0 1.169-.103 1.639-.309s.87-.474 1.202-.804.592-.696.783-1.1a4.52 4.52 0 0 0 .383-1.199l.152-.742zM77.45 8.568c-.603 0-1.163.104-1.683.309a4.78 4.78 0 0 0-1.386.841 4.52 4.52 0 0 0-1.013 1.286 5.5 5.5 0 0 0-.561 1.644c-.104.594-.111 1.142-.02 1.644s.272.931.544 1.286.635.635 1.089.841.981.309 1.584.309 1.164-.103 1.683-.309.976-.486 1.374-.841.735-.783 1.013-1.286.468-1.051.573-1.644.112-1.141.021-1.644a2.87 2.87 0 0 0-.558-1.286c-.281-.354-.643-.634-1.089-.841s-.969-.309-1.572-.309zm-65.19 4.02c0-3.592-2.81-6.069-6.131-6.069-1.277 0-2.554.495-3.32 1.238l-.128.124-.152-.124-.23-.99H0v16.608h2.529v-5.955l.152-.125.128.125c.767.742 2.069 1.238 3.32 1.238 3.321 0 6.131-2.477 6.131-6.069zm37.76 5.822V1.542h-2.554v6.214l-.128.124-.127-.124c-.767-.743-2.068-1.238-3.32-1.238-3.321 0-6.131 2.477-6.131 6.069s2.81 6.069 6.131 6.069c1.276 0 2.553-.495 3.32-1.238l.127-.124.128.124.255.99h2.299zM23.286 11.11c0-3.101-1.611-4.641-4.833-4.641-2.308 0-4.062 1.259-4.568 3.242l2.284.466c.408-1.049 1.154-1.562 2.26-1.562 1.37 0 2.356.654 2.356 2.053v.513h-2.092c-3.149 0-5.242 1.446-5.242 3.848 0 2.332 1.588 3.569 3.727 3.569 1.659 0 2.909-.584 3.75-1.726l.241 1.539h2.115V11.11zm38.599 0c0-3.101-1.611-4.641-4.833-4.641-2.308 0-4.062 1.259-4.568 3.242l2.284.466c.409-1.049 1.154-1.562 2.26-1.562 1.37 0 2.356.654 2.356 2.053v.513h-2.092c-3.149 0-5.242 1.446-5.242 3.848 0 2.332 1.587 3.569 3.727 3.569 1.659 0 2.909-.584 3.75-1.726l.241 1.539h2.115V11.11zm-25.77.115c0-2.725-1.788-4.707-4.853-4.707-1.022 0-2.299.495-2.809 1.239l-.127.123-.128-.123-.256-.992h-2.299V18.41h2.554v-7.037c.051-1.437 1.302-2.626 2.81-2.626 1.686 0 2.477.892 2.554 2.477v7.186h2.554v-7.186zm-17.516 1.984h2.188v.257c0 .956-.313 1.678-.962 2.215-.625.513-1.371.769-2.212.769-.986 0-1.515-.582-1.515-1.422 0-1.119.962-1.819 2.5-1.819zm38.599 0h2.188v.257c0 .956-.312 1.678-.962 2.215-.625.513-1.371.769-2.212.769-.986 0-1.514-.582-1.514-1.422 0-1.119.962-1.819 2.5-1.819zm-54.897-.621c0-2.106 1.532-3.84 3.703-3.84 2.426 0 3.703 1.734 3.703 3.84s-1.277 3.84-3.703 3.84c-2.171 0-3.703-1.733-3.703-3.84zm37.99 0c0-2.106 1.303-3.84 3.729-3.84 2.171 0 3.703 1.734 3.703 3.84s-1.532 3.84-3.703 3.84c-2.426 0-3.729-1.733-3.729-3.84z" fill="#ff2b85"></path></g><defs><clipPath id="A"><path fill="#fff" d="M0 0h116.571v24H0z"></path></clipPath></defs></svg>