<svg width="24" height="16" viewBox="0 0 24 16" fill="hsl(334, 79%, 50%)" xmlns="http://www.w3.org/2000/svg" class="fl-brand-primary" data-testid="subscription-icon-fp"><path d="M24 2L22.4155 14L3.495 13.999L4.22621 10.4152H4.2499C4.39071 10.7203 4.62585 10.9615 4.9542 11.1386C5.28254 11.3155 5.64994 11.4045 6.05571 11.4045C6.49351 11.4045 6.90258 11.3259 7.28203 11.1695C7.66171 11.0128 7.99949 10.7966 8.29516 10.5201C8.59126 10.2442 8.83912 9.9188 9.03893 9.54369C9.23853 9.16835 9.37759 8.76258 9.45611 8.32548C9.52652 7.89723 9.52608 7.49532 9.45502 7.12021C9.38417 6.7451 9.24774 6.41744 9.04639 6.13701C8.84482 5.85681 8.57942 5.63837 8.25019 5.4817C7.92118 5.32525 7.53756 5.24691 7.09976 5.24691C6.71746 5.24691 6.3323 5.33365 5.94451 5.50645C5.62098 5.65083 5.34011 5.84361 5.10201 6.0852L4.96428 6.23601H4.94016L5.07615 5.39541H4.00117L2.42 13.999L0 14L1.59591 2H24ZM18.267 5.24678C17.845 5.24678 17.4381 5.32738 17.0468 5.48792C16.6548 5.64868 16.2993 5.86939 15.9793 6.14936C15.6593 6.42979 15.3895 6.7554 15.1699 7.12643C14.9501 7.49746 14.8056 7.89709 14.7352 8.32557C14.6571 8.75427 14.6654 9.15618 14.7604 9.53129C14.8552 9.9064 15.0133 10.232 15.2351 10.5077C15.4566 10.7842 15.7378 11.0025 16.0786 11.1634C16.4197 11.324 16.8009 11.4046 17.2231 11.4046C17.6452 11.4046 18.052 11.324 18.4438 11.1634C18.8351 11.0025 19.1911 10.7842 19.5108 10.5077C19.8309 10.232 20.0985 9.9064 20.3141 9.53129C20.5297 9.15618 20.6766 8.75427 20.7549 8.32557C20.8251 7.89709 20.8144 7.49746 20.7238 7.12643C20.6325 6.7554 20.4744 6.42979 20.2491 6.14936C20.0237 5.86939 19.7425 5.64868 19.4053 5.48792C19.0684 5.32738 18.689 5.24678 18.267 5.24678ZM14.1224 5.24693C13.7641 5.24693 13.4105 5.34389 13.0615 5.53735C12.7128 5.73127 12.4414 5.98467 12.2475 6.29802H12.2239L12.3737 5.39544H11.2989L10.313 11.256H11.3877L11.881 8.31347C11.9903 7.67041 12.2094 7.19653 12.5382 6.89135C12.8667 6.5864 13.2942 6.43381 13.8195 6.43381C13.9073 6.43381 13.9926 6.44221 14.0755 6.45879C14.1586 6.47536 14.2435 6.4958 14.3302 6.52032L14.5857 5.32119C14.4519 5.27168 14.2975 5.24693 14.1224 5.24693ZM6.78984 6.28551C7.07651 6.28551 7.32546 6.33728 7.53712 6.44015C7.74878 6.54323 7.92118 6.68333 8.05454 6.86045C8.18768 7.03778 8.27585 7.25191 8.3195 7.5035C8.36271 7.75509 8.35942 8.02893 8.30963 8.32548C8.25962 8.62248 8.16882 8.89655 8.03721 9.14768C7.90495 9.3995 7.74462 9.61362 7.55533 9.79074C7.36626 9.9683 7.14867 10.1084 6.90236 10.211C6.65604 10.3144 6.38954 10.3659 6.10287 10.3659C5.81641 10.3659 5.56505 10.3144 5.34966 10.211C5.13405 10.1084 4.96165 9.9683 4.83224 9.79074C4.70283 9.61362 4.61663 9.3995 4.57364 9.14768C4.52999 8.89655 4.53328 8.62248 4.58307 8.32548C4.63308 8.02893 4.72192 7.75509 4.84979 7.5035C4.97766 7.25191 5.13822 7.03778 5.33146 6.86045C5.52426 6.68333 5.74403 6.54323 5.99035 6.44015C6.23689 6.33728 6.50316 6.28551 6.78984 6.28551ZM18.0887 6.2856C18.3753 6.2856 18.6243 6.33715 18.8359 6.44001C19.0476 6.5431 19.22 6.68342 19.3531 6.86054C19.4865 7.03787 19.5749 7.25177 19.6183 7.50359C19.6613 7.75495 19.6582 8.02879 19.6082 8.32557C19.5584 8.62257 19.4676 8.89664 19.3358 9.14777C19.204 9.39936 19.0432 9.61372 18.8544 9.7906C18.6649 9.96817 18.4473 10.1085 18.201 10.2111C17.9546 10.3144 17.6884 10.3658 17.4017 10.3658C17.115 10.3658 16.8641 10.3144 16.6485 10.2111C16.4329 10.1085 16.2605 9.96817 16.1311 9.7906C16.0017 9.61372 15.9152 9.39936 15.8722 9.14777C15.8288 8.89664 15.8319 8.62257 15.8819 8.32557C15.9319 8.02879 16.0207 7.75495 16.1484 7.50359C16.2765 7.25177 16.4368 7.03787 16.6301 6.86054C16.8231 6.68342 17.0429 6.5431 17.2892 6.44001C17.5355 6.33715 17.802 6.2856 18.0887 6.2856Z"></path></svg>