<svg xmlns="http://www.w3.org/2000/svg" width="24" height="24" viewBox="0 0 24 24"><path fill="#707070" d="M14 14C17.6881703 14 20.7250537 16.8575487 20.982842 20.5168977L20.9956923 20.7566666 21.0092837 21.5C21.0092837 21.7454599 20.8324086 21.9496084 20.5991594 21.9919443L20.5092837 22 3.5 22C3.25454011 22 3.05039163 21.8231248 3.00805567 21.5898756L3 21.5 3 21C3 17.2145483 6.00478338 14.1309013 9.75935025 14.004059L10 14 14 14zM14 16L10 16C7.67927885 16 5.7278369 17.5810722 5.16407403 19.7248167L5.11236106 19.941029 5.101 20 18.898 20 18.8877764 19.940804C18.432367 17.8271889 16.6416008 16.2162941 14.4511215 16.02011L14.2231327 16.004899 14 16zM12 3C14.7614237 3 17 5.23857625 17 8 17 10.7614237 14.7614237 13 12 13 9.23857625 13 7 10.7614237 7 8 7 5.23857625 9.23857625 3 12 3zM12 5C10.3431458 5 9 6.34314575 9 8 9 9.65685425 10.3431458 11 12 11 13.6568542 11 15 9.65685425 15 8 15 6.34314575 13.6568542 5 12 5z"></path></svg>