<svg aria-hidden="true" fill="#E21B70" focusable="false" class="voucher-icon" width="24px" height="24px" viewBox="0 0 24 24" xmlns="http://www.w3.org/2000/svg" xmlns:xlink="http://www.w3.org/1999/xlink"><title>ic-voucher</title><g id="Web" stroke="none" stroke-width="1" fill-rule="evenodd"><g id="icons/general/ic_award"><path d="M9.73217338,2.58437615 L9.78121501,2.87634234 L9.78121501,2.87634234 C9.96172142,3.95097548 10.8973296,4.75 12,4.75 C13.0475369,4.75 13.9443001,4.02888037 14.1861193,3.03540482 L14.218785,2.87634234 L14.2678266,2.58437616 C14.3001805,2.39175944 14.4669092,2.25067326 14.6622243,2.25063604 L18,2.25 L18,2.25 C18.9181734,2.25 19.6711923,2.95711027 19.7441988,3.85647279 L19.75,4 L19.75,20 C19.75,20.9181734 19.0428897,21.671286 18.1435452,21.7443018 L18.000021,21.7501038 L14.5818112,21.7501038 C14.4122797,21.7501038 14.2611615,21.6432329 14.2046709,21.48339 L14.1221879,21.25 L14.1221879,21.25 C13.8071105,20.3584753 12.9613249,19.75 12,19.75 C11.0952236,19.75 10.2927935,20.2889954 9.93883858,21.0956766 L9.87781211,21.25 L9.79532907,21.48339 C9.73883852,21.6432329 9.58772034,21.7501038 9.4181888,21.7501038 L6,21.7501038 L6,21.7501038 C5.0818266,21.7501038 4.32880766,21.0428998 4.2558012,20.143528 L4.25,20 L4.25,4 C4.25,3.0818266 4.95711027,2.32880766 5.85659533,2.2558012 L6.00014292,2.25 L9.33777574,2.25063604 C9.5330908,2.25067326 9.6998195,2.39175944 9.73217338,2.58437615 Z M8.19298742,3.74999999 L6,3.74999999 L6,3.74999999 C5.90532261,3.74999999 5.82293748,3.80262938 5.78050435,3.8802284 L5.75660268,3.94267729 L5.75,4 L5.75,9.849 C5.75014548,10.0698571 5.92914294,10.2489197 6.14999997,10.2491455 L7.75000005,10.2497273 C8.16425769,10.2498779 8.5,10.5857423 8.5,11 C8.5,11.414063 8.16433564,11.7497273 7.75027267,11.7497273 C7.7501818,11.7497273 7.75009092,11.7497273 7.75000005,11.7497273 L6.14999997,11.7491455 C5.92908614,11.7489197 5.74993493,11.9279407 5.7498546,12.1488545 C5.74985458,12.148903 5.74985457,12.1489515 5.75,12.149 L5.75,20 L5.75,20 C5.75,20.1183467 5.83223341,20.2174868 5.94269054,20.2433973 L6.00002103,20.25 L8.47599442,20.25 C8.59910599,20.2205071 8.71417691,20.1593559 8.7830658,20.0573227 C8.7830658,20.0573227 8.7830658,20.0573227 8.7830658,20.0573227 C9.37827259,19.0680855 10.4101812,18.4037829 11.5821983,18.2731639 L11.8008052,18.2552409 L12,18.25 C13.327968,18.25 14.5234271,18.9466195 15.1927717,20.0316122 L15.2019672,20.0477775 C15.273079,20.1727888 15.4058292,20.25 15.549651,20.25 L18,20.25 L18,20.25 C18.0946774,20.25 18.1770625,20.1973706 18.2194957,20.1197716 L18.2433973,20.0573227 L18.25,20 L18.25,12.149 C18.2501454,11.9280861 18.0710593,11.749 17.8501454,11.749 C17.8500969,11.749 17.8500485,11.749 17.85,11.7491455 L16.25,11.7497273 C15.835937,11.7498778 15.5001506,11.4143356 15.5,11.0002726 C15.5,11.0001817 15.5,11.0000909 15.5,11 C15.5,10.5857423 15.8357423,10.2498779 16.25,10.2497273 L17.85,10.2491455 C18.0708571,10.2489197 18.2498545,10.0698571 18.25,9.849 L18.25,4 L18.25,4 C18.25,3.88165327 18.1677666,3.78251317 18.0574127,3.75660267 L18.0001429,3.74999999 L15.8086641,3.74999999 C15.646751,3.75005382 15.5008119,3.84767591 15.4390046,3.99732779 C15.4350859,4.00681599 15.4317798,4.01459653 15.4290864,4.02066939 C14.8939086,5.22732681 13.745131,6.08632754 12.3979864,6.22902917 L12.1958316,6.24494638 L12,6.24999999 C10.4929339,6.24999999 9.17383651,5.35529994 8.58144107,4.04418557 L8.56447954,4.00169758 C8.50380104,3.84970015 8.35664896,3.74999999 8.19298742,3.74999999 Z M14,11 C14,11.4142136 13.6642136,11.75 13.25,11.75 L10.75,11.75 C10.3357864,11.75 10,11.4142136 10,11 C10,10.5857864 10.3357864,10.25 10.75,10.25 L13.25,10.25 C13.6642136,10.25 14,10.5857864 14,11 Z" id="Shape"></path></g></g></svg>